<svg viewBox="0 0 1490 400" xmlns="http://www.w3.org/2000/svg"><g><g><g><g><g><line x1="72.34375" y1="377" x2="67.34375" y2="377" style="visibility: inherit;" fill="rgb(0, 0, 0)" stroke="rgb(204, 204, 204)" stroke-width="1px"></line><line x1="72.34375" y1="351.8666666666667" x2="67.34375" y2="351.8666666666667" style="visibility: inherit;" fill="rgb(0, 0, 0)" stroke="rgb(204, 204, 204)" stroke-width="1px"></line><line x1="72.34375" y1="326.73333333333335" x2="67.34375" y2="326.73333333333335" style="visibility: inherit;" fill="rgb(0, 0, 0)" stroke="rgb(204, 204, 204)" stroke-width="1px"></line><line x1="72.34375" y1="301.6" x2="67.34375" y2="301.6" style="visibility: inherit;" fill="rgb(0, 0, 0)" stroke="rgb(204, 204, 204)" stroke-width="1px"></line><line x1="72.34375" y1="276.4666666666667" x2="67.34375" y2="276.4666666666667" style="visibility: inherit;" fill="rgb(0, 0, 0)" stroke="rgb(204, 204, 204)" stroke-width="1px"></line><line x1="72.34375" y1="251.33333333333337" x2="67.34375" y2="251.33333333333337" style="visibility: inherit;" fill="rgb(0, 0, 0)" stroke="rgb(204, 204, 204)" stroke-width="1px"></line><line x1="72.34375" y1="226.20000000000005" x2="67.34375" y2="226.20000000000005" style="visibility: inherit;" fill="rgb(0, 0, 0)" stroke="rgb(204, 204, 204)" stroke-width="1px"></line><line x1="72.34375" y1="201.06666666666663" x2="67.34375" y2="201.06666666666663" style="visibility: inherit;" fill="rgb(0, 0, 0)" stroke="rgb(204, 204, 204)" stroke-width="1px"></line><line x1="72.34375" y1="175.93333333333334" x2="67.34375" y2="175.93333333333334" style="visibility: inherit;" fill="rgb(0, 0, 0)" stroke="rgb(204, 204, 204)" stroke-width="1px"></line><line x1="72.34375" y1="150.80000000000004" x2="67.34375" y2="150.80000000000004" style="visibility: inherit;" fill="rgb(0, 0, 0)" stroke="rgb(204, 204, 204)" stroke-width="1px"></line><line x1="72.34375" y1="125.66666666666669" x2="67.34375" y2="125.66666666666669" style="visibility: inherit;" fill="rgb(0, 0, 0)" stroke="rgb(204, 204, 204)" stroke-width="1px"></line><line x1="72.34375" y1="100.53333333333339" x2="67.34375" y2="100.53333333333339" style="visibility: inherit;" fill="rgb(0, 0, 0)" stroke="rgb(204, 204, 204)" stroke-width="1px"></line><line x1="72.34375" y1="75.39999999999998" x2="67.34375" y2="75.39999999999998" style="visibility: inherit;" fill="rgb(0, 0, 0)" stroke="rgb(204, 204, 204)" stroke-width="1px"></line><line x1="72.34375" y1="50.266666666666694" x2="67.34375" y2="50.266666666666694" style="visibility: inherit;" fill="rgb(0, 0, 0)" stroke="rgb(204, 204, 204)" stroke-width="1px"></line><line x1="72.34375" y1="25.13333333333341" x2="67.34375" y2="25.13333333333341" style="visibility: inherit;" fill="rgb(0, 0, 0)" stroke="rgb(204, 204, 204)" stroke-width="1px"></line><line x1="72.34375" y1="0" x2="67.34375" y2="0" style="visibility: inherit;" fill="rgb(0, 0, 0)" stroke="rgb(204, 204, 204)" stroke-width="1px"></line></g><g transform="translate(62.34375, 0)"><text x="0" y="377" dx="0em" dy="0.3em" style="text-anchor: end; visibility: hidden; font-family: Roboto, sans-serif; font-size: 12px; font-weight: 200;" fill="rgb(33, 33, 33)" stroke="none" stroke-width="1px">3e-3</text><text x="0" y="351.8666666666667" dx="0em" dy="0.3em" style="text-anchor: end; visibility: inherit; font-family: Roboto, sans-serif; font-size: 12px; font-weight: 200;" fill="rgb(33, 33, 33)" stroke="none" stroke-width="1px">3.2e-3</text><text x="0" y="326.73333333333335" dx="0em" dy="0.3em" style="text-anchor: end; visibility: inherit; font-family: Roboto, sans-serif; font-size: 12px; font-weight: 200;" fill="rgb(33, 33, 33)" stroke="none" stroke-width="1px">3.4e-3</text><text x="0" y="301.6" dx="0em" dy="0.3em" style="text-anchor: end; visibility: inherit; font-family: Roboto, sans-serif; font-size: 12px; font-weight: 200;" fill="rgb(33, 33, 33)" stroke="none" stroke-width="1px">3.6e-3</text><text x="0" y="276.4666666666667" dx="0em" dy="0.3em" style="text-anchor: end; visibility: inherit; font-family: Roboto, sans-serif; font-size: 12px; font-weight: 200;" fill="rgb(33, 33, 33)" stroke="none" stroke-width="1px">3.8e-3</text><text x="0" y="251.33333333333337" dx="0em" dy="0.3em" style="text-anchor: end; visibility: inherit; font-family: Roboto, sans-serif; font-size: 12px; font-weight: 200;" fill="rgb(33, 33, 33)" stroke="none" stroke-width="1px">4e-3</text><text x="0" y="226.20000000000005" dx="0em" dy="0.3em" style="text-anchor: end; visibility: inherit; font-family: Roboto, sans-serif; font-size: 12px; font-weight: 200;" fill="rgb(33, 33, 33)" stroke="none" stroke-width="1px">4.2e-3</text><text x="0" y="201.06666666666663" dx="0em" dy="0.3em" style="text-anchor: end; visibility: inherit; font-family: Roboto, sans-serif; font-size: 12px; font-weight: 200;" fill="rgb(33, 33, 33)" stroke="none" stroke-width="1px">4.4e-3</text><text x="0" y="175.93333333333334" dx="0em" dy="0.3em" style="text-anchor: end; visibility: inherit; font-family: Roboto, sans-serif; font-size: 12px; font-weight: 200;" fill="rgb(33, 33, 33)" stroke="none" stroke-width="1px">4.6e-3</text><text x="0" y="150.80000000000004" dx="0em" dy="0.3em" style="text-anchor: end; visibility: inherit; font-family: Roboto, sans-serif; font-size: 12px; font-weight: 200;" fill="rgb(33, 33, 33)" stroke="none" stroke-width="1px">4.8e-3</text><text x="0" y="125.66666666666669" dx="0em" dy="0.3em" style="text-anchor: end; visibility: inherit; font-family: Roboto, sans-serif; font-size: 12px; font-weight: 200;" fill="rgb(33, 33, 33)" stroke="none" stroke-width="1px">5e-3</text><text x="0" y="100.53333333333339" dx="0em" dy="0.3em" style="text-anchor: end; visibility: inherit; font-family: Roboto, sans-serif; font-size: 12px; font-weight: 200;" fill="rgb(33, 33, 33)" stroke="none" stroke-width="1px">5.2e-3</text><text x="0" y="75.39999999999998" dx="0em" dy="0.3em" style="text-anchor: end; visibility: inherit; font-family: Roboto, sans-serif; font-size: 12px; font-weight: 200;" fill="rgb(33, 33, 33)" stroke="none" stroke-width="1px">5.4e-3</text><text x="0" y="50.266666666666694" dx="0em" dy="0.3em" style="text-anchor: end; visibility: inherit; font-family: Roboto, sans-serif; font-size: 12px; font-weight: 200;" fill="rgb(33, 33, 33)" stroke="none" stroke-width="1px">5.6e-3</text><text x="0" y="25.13333333333341" dx="0em" dy="0.3em" style="text-anchor: end; visibility: inherit; font-family: Roboto, sans-serif; font-size: 12px; font-weight: 200;" fill="rgb(33, 33, 33)" stroke="none" stroke-width="1px">5.8e-3</text><text x="0" y="0" dx="0em" dy="0.3em" style="text-anchor: end; visibility: hidden; font-family: Roboto, sans-serif; font-size: 12px; font-weight: 200;" fill="rgb(33, 33, 33)" stroke="none" stroke-width="1px">6e-3</text></g><line x1="72.34375" y1="0" x2="72.34375" y2="377" fill="rgb(0, 0, 0)" stroke="rgb(204, 204, 204)" stroke-width="1px"></line></g></g><g transform="translate(72, 0)" clip-path="url(#clip_0)"><clipPath id="clip_0"><rect width="1417" height="377"></rect></clipPath><g><g><g><line x1="0" y1="0" x2="0" y2="377" fill="rgb(0, 0, 0)" stroke="rgb(66, 66, 66)" stroke-width="1px" opacity="0.25"></line><line x1="157.51736111111111" y1="0" x2="157.51736111111111" y2="377" fill="rgb(0, 0, 0)" stroke="rgb(66, 66, 66)" stroke-width="1px" opacity="0.25"></line><line x1="315.03472222222223" y1="0" x2="315.03472222222223" y2="377" fill="rgb(0, 0, 0)" stroke="rgb(66, 66, 66)" stroke-width="1px" opacity="0.25"></line><line x1="472.5520833333333" y1="0" x2="472.5520833333333" y2="377" fill="rgb(0, 0, 0)" stroke="rgb(66, 66, 66)" stroke-width="1px" opacity="0.25"></line><line x1="630.0694444444445" y1="0" x2="630.0694444444445" y2="377" fill="rgb(0, 0, 0)" stroke="rgb(66, 66, 66)" stroke-width="1px" opacity="0.25"></line><line x1="787.5868055555555" y1="0" x2="787.5868055555555" y2="377" fill="rgb(0, 0, 0)" stroke="rgb(66, 66, 66)" stroke-width="1px" opacity="0.25"></line><line x1="945.1041666666666" y1="0" x2="945.1041666666666" y2="377" fill="rgb(0, 0, 0)" stroke="rgb(66, 66, 66)" stroke-width="1px" opacity="0.25"></line><line x1="1102.6215277777778" y1="0" x2="1102.6215277777778" y2="377" fill="rgb(0, 0, 0)" stroke="rgb(66, 66, 66)" stroke-width="1px" opacity="0.25"></line><line x1="1260.138888888889" y1="0" x2="1260.138888888889" y2="377" fill="rgb(0, 0, 0)" stroke="rgb(66, 66, 66)" stroke-width="1px" opacity="0.25"></line><line x1="1417.65625" y1="0" x2="1417.65625" y2="377" fill="rgb(0, 0, 0)" stroke="rgb(66, 66, 66)" stroke-width="1px" opacity="0.25"></line></g><g><line x1="0" y1="377" x2="1417.65625" y2="377" fill="rgb(0, 0, 0)" stroke="rgb(66, 66, 66)" stroke-width="1px" opacity="0.25"></line><line x1="0" y1="351.8666666666667" x2="1417.65625" y2="351.8666666666667" fill="rgb(0, 0, 0)" stroke="rgb(66, 66, 66)" stroke-width="1px" opacity="0.25"></line><line x1="0" y1="326.73333333333335" x2="1417.65625" y2="326.73333333333335" fill="rgb(0, 0, 0)" stroke="rgb(66, 66, 66)" stroke-width="1px" opacity="0.25"></line><line x1="0" y1="301.6" x2="1417.65625" y2="301.6" fill="rgb(0, 0, 0)" stroke="rgb(66, 66, 66)" stroke-width="1px" opacity="0.25"></line><line x1="0" y1="276.4666666666667" x2="1417.65625" y2="276.4666666666667" fill="rgb(0, 0, 0)" stroke="rgb(66, 66, 66)" stroke-width="1px" opacity="0.25"></line><line x1="0" y1="251.33333333333337" x2="1417.65625" y2="251.33333333333337" fill="rgb(0, 0, 0)" stroke="rgb(66, 66, 66)" stroke-width="1px" opacity="0.25"></line><line x1="0" y1="226.20000000000005" x2="1417.65625" y2="226.20000000000005" fill="rgb(0, 0, 0)" stroke="rgb(66, 66, 66)" stroke-width="1px" opacity="0.25"></line><line x1="0" y1="201.06666666666663" x2="1417.65625" y2="201.06666666666663" fill="rgb(0, 0, 0)" stroke="rgb(66, 66, 66)" stroke-width="1px" opacity="0.25"></line><line x1="0" y1="175.93333333333334" x2="1417.65625" y2="175.93333333333334" fill="rgb(0, 0, 0)" stroke="rgb(66, 66, 66)" stroke-width="1px" opacity="0.25"></line><line x1="0" y1="150.80000000000004" x2="1417.65625" y2="150.80000000000004" fill="rgb(0, 0, 0)" stroke="rgb(66, 66, 66)" stroke-width="1px" opacity="0.25"></line><line x1="0" y1="125.66666666666669" x2="1417.65625" y2="125.66666666666669" fill="rgb(0, 0, 0)" stroke="rgb(66, 66, 66)" stroke-width="1px" opacity="0.25"></line><line x1="0" y1="100.53333333333339" x2="1417.65625" y2="100.53333333333339" fill="rgb(0, 0, 0)" stroke="rgb(66, 66, 66)" stroke-width="1px" opacity="0.25"></line><line x1="0" y1="75.39999999999998" x2="1417.65625" y2="75.39999999999998" fill="rgb(0, 0, 0)" stroke="rgb(66, 66, 66)" stroke-width="1px" opacity="0.25"></line><line x1="0" y1="50.266666666666694" x2="1417.65625" y2="50.266666666666694" fill="rgb(0, 0, 0)" stroke="rgb(66, 66, 66)" stroke-width="1px" opacity="0.25"></line><line x1="0" y1="25.13333333333341" x2="1417.65625" y2="25.13333333333341" fill="rgb(0, 0, 0)" stroke="rgb(66, 66, 66)" stroke-width="1px" opacity="0.25"></line><line x1="0" y1="0" x2="1417.65625" y2="0" fill="rgb(0, 0, 0)" stroke="rgb(66, 66, 66)" stroke-width="1px" opacity="0.25"></line></g></g></g><g><g><line x1="0" y1="754" x2="1417.65625" y2="754" fill="rgb(0, 0, 0)" stroke="rgb(153, 153, 153)" stroke-width="1.5px"></line></g></g><g><g><line x1="157.51736111111111" y1="0" x2="157.51736111111111" y2="377" fill="rgb(0, 0, 0)" stroke="rgb(153, 153, 153)" stroke-width="1.5px"></line></g></g><g><g><g><g><g><path stroke="rgb(0, 119, 187)" stroke-width="2px" d="M202.15778125,-12.01493605499039L203.4179201388889,2.3867872709831612L203.44942361111111,-10.840721084793055L204.58354861111113,-4.686090590738091L205.08760416666667,1.6011930796371696L205.18211458333332,13.175734976712032L206.28473611111113,8.486125191624435L206.37924652777778,-0.8757694532547708L206.8202951388889,10.584220735286229L208.77351041666665,-7.192267659215299L209.02553819444444,11.527382919100218L210.12815972222222,25.347335278403776L211.13627083333333,22.265751840808193L211.41980208333334,33.22316064963953L215.70427430555554,44.006742773644895L217.34245486111112,45.417978742635775L217.65748958333333,56.064302090161966L218.63409722222224,63.57655653507921L219.26416666666668,64.53864852429288L219.29567013888888,74.97079679374498L222.7295486111111,59.88717641932463L223.01307986111112,74.90702092400845L227.10853125,91.20487603496538L230.57391319444446,106.71754382173843L231.83405208333335,117.0746315382161L234.25981944444445,133.47843056443773L234.41733680555555,133.77579899295225L234.82688194444447,147.53510110923096L235.07890972222225,147.4281179344562L235.1734201388889,160.14238547002722L236.37055208333334,163.43974039235977L238.70180902777776,159.1804045837875L238.73331249999998,155.01988563945417L239.39488541666665,155.41684966789006L240.52901041666667,147.09350209438594L240.78103819444442,150.46243251067676L242.07268055555554,159.2532349951204L242.35621180555555,151.7855402684492L242.8287638888889,161.80819021898205L243.1122951388889,160.01544200571996L244.24642013888888,173.96579036380427L244.2779236111111,175.54385012049832L244.71897222222225,166.18513329322755L245.25453124999999,153.0481268385785L246.10512500000002,143.86520600684915L247.11323611111112,159.4487480289842L247.6487951388889,166.2359910498324L251.17718402777777,171.03838529280407L254.6425659722222,173.6790783678983L254.67406944444443,169.1269583598074L255.30413888888887,147.29167959264691L255.3356423611111,159.32061958614062L256.59578125,162.35419678521006L258.29696875,157.9082715814224L258.86403125000004,179.13604495107592L259.62011458333336,160.9410702949532L260.3761979166667,171.58014117126274L260.47070833333333,179.37946428027507L263.24301388888887,187.11164322098156L264.75518055555557,196.79858160078555L267.2439548611111,191.07851209080243L267.77951388888886,191.4193664784393L268.5986041666667,198.77252064517117L269.8587430555556,191.52243427209638L270.9298611111111,179.42290045235103L271.4339166666667,199.5199480011873L272.6310486111111,200.06246950456378L272.72555902777776,197.29633064654794L272.85157291666667,195.9062987447022L273.0720972222222,200.0339358238522L273.1666076388889,193.31140225111312L273.76517361111115,194.91406478322867L274.45824999999996,203.00723995817103L276.66349305555553,193.7656193870449L278.74272222222226,196.1417041146643L280.8534548611111,189.59353796038351L281.42051736111114,190.42880759821333L282.7436631944445,188.30161713621615L283.90929166666666,202.97607341097748L284.2558298611111,213.04487861754674L286.1775416666667,222.26596517003878L286.9651284722222,230.09652932914477L287.34317013888887,231.0708226423406L287.4376805555556,234.49289457068505L288.13075694444444,238.69131770967846L289.2333784722222,241.2339660917088L289.5799166666667,237.2735298943141L290.6825381944444,222.27599035680012L291.6276423611111,211.49406896469824L293.54935416666666,220.07977454327246L293.86438888888887,231.096279973066L297.8338263888889,237.29819502539016L300.38560763888887,245.15743991994802L300.5116215277778,261.1834474924541L301.2992083333333,257.36667821546416L302.811375,259.7309709098837L303.9770034722222,259.2622558190565L305.2686458333333,258.19173460786385L305.5206736111111,266.3083762434712L305.8042048611111,259.98954801902715L306.5287847222222,264.9220009566578L308.00944791666666,264.8623951090117L309.7421388888889,266.5499896975998L309.86815277777777,268.3551156211482L310.1201805555556,273.422478059744L311.31731249999996,272.60677498493504L312.19940972222224,257.0204904327626L317.52349652777775,262.3966140734554L317.80702777777776,268.1087575130105L317.8700347222222,260.54545458887657L319.19318055555556,267.1412790245392L319.31919444444446,273.47584920162427L319.9177604166666,263.46396686206936L320.9258715277778,276.57267658082066L321.3354166666667,270.3085311849956L322.1230034722222,277.5476199967193L322.5325486111111,271.08569408799366L323.0051006944444,282.7756644195029L323.28863194444443,280.9399189766174L324.32824652777776,272.0803407395437L325.0843298611111,273.9681955326332L325.1788402777778,270.43334076049325L326.4389791666667,283.27357542286757L327.73062152777777,281.69889874545L329.0537673611111,298.45681333266054L329.3372986111111,287.8338982334576L331.0699895833333,292.7458800598984L336.0475381944444,302.74687625418136L338.03225694444444,296.6044997083149L338.91435416666667,308.1396086443664L339.6389340277778,302.09463093852213L341.2456111111111,295.6867353790018L342.3167291666667,288.6471788698244L342.72627430555553,279.89254049120194L345.15204166666666,305.38658427292813L345.93962847222224,287.49479682352967L346.44368402777775,291.8424022733082L346.82172569444447,301.245923670217L348.2078784722222,320.73757417276573L350.0350798611111,328.62309456706095L350.8856736111111,304.9120111388865L351.0116875,299.4611803612353L353.6264756944444,314.5750213377421L354.19353819444444,314.62485548358626L355.3276631944444,325.57224414622664L356.99734722222223,331.25382380784083L357.0603541666667,304.2115431351992L357.8164375,312.09995129745397L357.8479409722222,317.87642076387715L358.0054583333333,319.07814345722227L358.16297569444447,298.8140708186119L363.17202777777777,315.1884918855363L363.8966076388889,313.366356951797L364.3061527777778,312.5477365540289L364.46367013888886,328.759760619908L364.9677256944444,333.43754168652066L365.12524305555553,317.4212660069917L365.4087743055556,335.21148990992634L365.9128298611111,345.83112049169694L367.74003125,339.4856396311563L369.53572916666667,331.5638848611638L370.16579861111114,346.6402876691376L371.80397916666664,317.1849869539155L373.0641180555555,316.48213796390974L373.3161458333333,297.8467045043343L375.39537499999994,322.5994562219739L375.48988541666665,306.6131326483385L375.8364236111111,310.5331916104771L377.7581354166667,328.6098484836131L377.91565277777784,321.19193341784336L377.9786597222222,338.5367429352958L379.74285416666663,325.54930873396944L381.72757291666665,336.65473081379906L381.8220833333333,345.5256847836164L382.0111041666667,335.3342540215504L383.2082361111111,347.6446040496857L384.56288541666663,347.87694101411887L386.01204513888894,315.93557284675313L386.6736180555555,337.9796322478986L387.7447361111111,343.49358103662547L388.6898402777778,339.4063506826152L389.1623923611111,354.00830568175843L389.60344097222224,321.2216849414587L391.77718055555556,346.67486994543157L392.6592777777778,330.30664020451L392.7852916666667,342.9074046058283L392.8482986111111,350.41646094602294L393.22634027777775,357.23154570896594L393.98242361111113,355.482081702287L394.3604652777778,337.81291128651407L394.8015138888889,308.4926152350869L395.1480520833333,332.6016892141024L396.72322569444447,325.1565635673753L397.0697638888889,298.0497708935073L398.14088194444446,307.30197520018805L398.32990277777776,316.22567258205726L398.8339583333333,324.61844344567294L400.9446909722222,313.25175122051064L401.0392013888889,300.42117780175977L401.8582916666666,303.39544707696933L403.0554236111111,318.62890797452906L403.0869270833333,335.53792962961467L403.90601736111114,343.31550126343814L404.97713541666667,325.983486391772L406.23727430555556,337.82653980737086L406.42629513888886,327.00599507809767L407.30839236111115,319.36411524209035L409.10409027777774,331.6710098558226L410.9942986111111,332.09136377340906L412.00240972222224,337.5496156408371L413.38856250000003,330.0952259869763L414.0816388888889,343.88123475515175L416.34988888888887,352.8543433164756L416.7594340277778,340.055241501989L418.27160069444443,332.8861870005699L418.71264930555554,317.2645328445716L418.87016666666665,321.77555688094L421.4219479166667,323.4012717413162L422.0520173611111,326.1281357399476L425.01334375,309.70756925146895L426.80904166666664,331.0265932920145L426.99806250000006,325.71440301468374L429.01428472222227,337.5151429971381L430.3059270833333,347.520391934881L430.43194097222226,350.45677143435836L431.4085486111111,340.90970678340096L432.3536527777778,341.1979012938978L433.23575,345.14213410507494L433.9918333333333,350.64959779351466L434.05484027777777,351.17397462036917L435.47249652777776,338.64404122828466L435.78753125000003,340.03513448640126L436.9531597222222,352.00083457701055L437.17368402777777,352.6121360740422L438.4338229166667,349.2716547815815L440.5760590277778,359.108866711834L441.23763194444444,354.80576566082976L442.0882256944444,339.83935634005707L442.8758125,334.3619127675909L444.86053125,350.0908218694738L445.8371388888889,349.72831638120687L447.72734722222225,344.63939178092124L448.9874861111111,342.4199901927184L450.2161215277778,328.31804922274773L450.59416319444443,346.0788811555129L450.87769444444444,332.54383319207756L451.35024652777776,341.7254016350035L451.9173090277778,330.87532646359944L452.35835763888883,345.0972500107305L452.76790277777775,343.39055558239124L452.92542013888885,336.0531847759269L453.2404548611111,341.0487109184771L455.41419444444443,344.8684751171674L457.99747916666666,342.44068487781124L458.2810104166666,347.599248067078L458.87957638888895,351.1366774974487L462.1874409722222,341.15498180195027L462.2189444444445,327.6538201059162L463.47908333333334,324.52340487675434L464.7707256944444,317.6591676922832L464.8022291666666,315.68270390419326L465.36929166666664,314.8543829367846L466.6609340277778,306.6118641841187L467.00747222222225,318.70074998946626L467.4170173611111,324.28926488451145L467.8265625,305.0259701474526L468.3621215277778,307.98565554478876L469.21271527777776,327.1077185080992L469.9372951388889,335.0258879744935L470.9139027777778,317.71799326840613L470.94540625,325.9565721118663L470.97690972222216,329.83079266012L471.2919444444444,340.7916020028409L471.70148958333334,353.75427338739934L471.89051041666664,357.3297147371513L472.3315590277778,337.56128464623146L474.5368020833333,346.8620926245085L475.3873958333333,330.9054581992247L476.36400347222224,339.5068956602068L476.89956249999994,352.31037437524105L478.56924652777775,357.27585235847454L479.1048055555556,347.86810929072954L479.3253298611111,358.95373022850197L481.02651736111113,355.0232276333124L481.37305555555554,339.88392895014584L483.3262708333333,345.61973131255206L483.42078125000006,339.36300772337654L483.4522847222222,352.5424269012623L484.9959548611111,364.2722116324512L486.5711284722222,326.99048521200064L486.7601493055556,326.5057798770323L486.79165277777776,323.94371699922806L486.9806736111111,346.57275827929493L488.33532291666666,360.84403218004184L488.8708819444445,349.331049863784L490.22553125,338.1929634897143L491.32815277777775,343.41784315858666L492.49378125,326.86240111423166L492.80881597222225,315.7327450005172L492.8718229166667,288.4846916047508L494.8250381944444,299.8935583304529L495.14007291666667,315.4744020802477L495.3605972222223,314.71494787127966L496.8412604166666,323.0495368926696L499.07800694444444,311.5384833046181L504.7801354166666,318.57088640104035L504.93765277777777,318.55866195099736L505.1896805555555,321.4647563102574L505.75674305555555,305.58876462942743L507.01688194444444,305.64034748946466L507.77296527777776,317.9091878289968L507.9619861111112,320.84275497302355L509.41114583333336,334.2169712144431L510.7342916666667,332.19745397120494L510.9233125,311.86171196852985L511.17534027777776,328.13701255741637L514.4832048611112,323.3016573354478L516.467923611111,325.1053698064312L516.7829583333333,330.3210234076634L516.9404756944444,337.7470720801267L518.01159375,320.94233758187374L518.57865625,323.82371418562184L522.2645625,321.04710275264574L523.3041770833333,308.8767855162342L525.9819722222222,313.84629755710085L527.2421111111112,328.917633942482L527.8721805555556,345.01866684062304L528.1557118055555,342.14556354430135L528.8172847222222,312.5493307311147L529.8568993055555,334.69078941263615L530.7389965277778,334.02053689430863L531.3690659722222,333.4025472167375L531.6525972222222,334.5819330369875L534.1413715277778,334.7359715827571L534.6769305555556,333.82493800465863L536.4096215277777,332.1221054993745L537.9532916666667,335.5645764260596L541.0721354166667,327.01849173937876L541.1981493055556,330.17815109303376L542.9623437500001,290.1117862867958L544.09646875,311.4590401711154L545.0730763888889,315.80006895137353L545.1360833333333,319.36751965883883L545.5141249999999,320.7625747993301L546.7112569444445,319.7885545591341L547.9713958333333,319.4311458354092L548.0974097222222,319.7702701403139L548.1604166666666,319.4088577832344L548.8219895833333,329.1275296855308L548.8534930555555,335.49498100792397L549.3260451388888,324.5896406737866L549.7040868055556,333.7112875800074L550.5546805555556,333.3429988048915L550.6176875,329.2748816786673L550.6806944444444,309.0146642324408L553.0119513888889,312.54350339479726L554.4926145833333,307.8588734074383L555.9732777777778,305.78256781397954L557.8634861111111,316.47344730073434L560.1947430555555,321.4759449006571L560.4782743055556,329.81592114541655L563.94365625,340.7687517857973L564.0696701388889,333.21763297034846L565.2983055555555,326.79806757761173L566.1804027777778,330.499973658481L566.3064166666667,312.04104250968027L566.9679895833333,301.27920040245175L567.3775347222222,303.0134005060116L567.8185833333333,295.82364214447057L568.5746666666666,303.1821939263955L569.9608194444444,303.028091165774L572.9851527777778,298.65488992135903L575.28490625,302.0332293915322L576.6395555555555,300.43665176848987L578.0572118055555,316.6222034005548L579.2858472222222,309.36646825074513L580.2309513888889,317.01732522571695L581.396579861111,336.2038573885438L583.5073125,341.81828727882964L584.3894097222222,334.8177365406068L584.6414374999999,333.3573523624467L586.6891631944445,310.0723638137913L587.2877291666666,318.50868918105385L587.4452465277778,319.83725187716544L592.3282847222222,327.0308627560496L593.8089479166666,324.98496466600454L595.1005902777778,325.0752183530145L595.9196805555555,326.06310880433006L597.6523715277777,331.0799403088817L597.9359027777778,329.4929741726336L598.7549930555556,329.8028777990352L600.0151319444444,305.15394824814456L604.1420868055556,315.9778349232475L604.488625,314.2763556665758L605.0556875,312.6854549868353L606.6938680555555,328.23809864983645L606.9143923611111,322.36858969747436L609.7182013888889,323.1943930682207L609.9387256944444,309.9472734054425L611.1358576388889,319.06369933782014L611.3248784722223,314.37615834602514L611.7659270833333,323.745639587266L612.0494583333334,324.2673236155447L615.4203298611111,314.1262155944468L616.7434756944444,327.3817951209463L618.1926354166667,316.44692742663324L618.8857118055555,312.1905666940175L622.0360590277778,303.093665741052L622.5086111111111,313.3707618487869L624.3673159722222,318.1869366838333L625.3754270833333,324.85552993210933L625.7849722222222,314.0876064690517L625.9109861111111,324.541275635912L627.5806701388889,323.4115224429293L627.7066840277778,323.5899307995036L628.1792361111111,319.2115047945476L630.6680104166667,327.2606087150015L632.1171701388889,309.5845474924249L632.1486736111111,311.2680632395408L632.2746875,296.8952149809616L633.5348263888889,317.8689905014366L633.975875,323.2148124005932L634.4169236111112,301.39900552565086L634.8894756944444,317.15213406707386L635.6140555555555,311.95144132053184L635.8975868055555,307.2122394232968L636.3386354166666,311.4235904128265L640.5916041666667,323.71269503822396L641.0326527777778,320.0302509203979L641.4737013888889,325.0310221377768L641.7572326388888,322.51775717221244L643.2693993055556,317.3296298833144L643.9624756944445,309.35471850617444L644.4350277777778,307.65959767515693L644.6240486111111,308.425794106316L645.5061458333333,307.85310050269453L649.2865625000001,293.6299268899092L650.1686597222222,301.545355797672L651.1137638888889,305.4469550309263L652.4999166666666,299.9121271041144L652.8149513888889,306.89131743860895L653.6655451388889,309.4989599276741L654.0120833333333,302.4561178315178L655.0516979166667,310.8967844421265L655.3037256944444,309.09121777859906L655.9022916666667,304.9592602324838L656.2488298611111,291.61989845493565L657.5719756944444,296.3440738563287L659.0841423611112,308.96419844421035L659.1156458333332,307.61504813840355L662.5810277777778,323.5641943090779L663.9671805555556,313.40616487479934L665.2588229166666,306.1427056109909L667.4010590277778,299.86906339845086L667.4325625,290.29963659914944L669.1022465277778,304.45902723524534L669.1652534722223,309.60833907795086L669.3542743055556,305.79770569506564L671.4335034722222,319.5335234123167L672.4731180555556,299.1557649707415L673.9222777777778,320.43074657731967L674.52084375,319.9925069036904L675.0248993055556,305.5308713290784L680.6325173611111,309.81831795217755L684.6019548611112,323.6074420446684L684.72796875,329.7998372468569L687.8468125,334.0803602697383L688.8549236111112,325.7715985094169L689.2959722222222,302.28814919131946L689.3904826388889,320.0975023490962L690.1465659722222,313.99356862824817L691.406704861111,312.0061954299906L691.5327187500001,312.529569069463L693.1393958333333,319.6018371231365L693.5804444444444,305.2422114767834L694.7775763888889,313.8191831293128L695.4706527777778,318.33634334126646L696.8568055555556,318.649972092278L697.0458263888889,312.088730002642L697.0773298611111,308.6553106458189L697.5813854166666,303.75026107065094L697.9594270833334,295.31993040431865L700.2906840277778,300.91055187079905L700.9522569444445,310.81346315116843L701.3618020833334,314.1950078560183L701.6768368055556,314.0798782444956L701.9288645833333,313.35401671053745L705.4887569444444,310.23109107715953L706.6543854166666,296.3705462483251L709.3006770833333,296.3303057447682L710.81284375,295.1863005290296L712.9865833333333,291.74094445535735L713.0180868055556,287.93310987395563L714.2152187500001,293.2171287046424L714.7507777777777,304.0094525370926L715.0343090277778,262.10048859937575L716.1054270833333,294.65105608576687L717.2710555555557,297.34598447391875L718.7202152777777,312.2512086498806L720.5789201388889,326.36977770510725L720.8309479166666,330.9993696076179L720.9569618055556,330.40166019548997L722.5321354166667,320.0318630296987L724.7373784722223,317.60921396964795L724.8318888888889,313.3074314841867L725.6824826388888,325.3002133138025L727.3521666666667,298.28550960225124L728.0137395833333,279.66803549191707L728.39178125,295.6341269530536L728.6438090277777,303.0367094822833L728.7698229166667,309.06401763249096L728.8958368055556,313.84790887468256L731.1010798611111,325.1922850484145L733.2748194444443,312.6450551030234L735.0390138888889,307.9493209629076L735.4485590277778,310.9237564161708L737.3387673611111,296.7788423926308L738.0948506944445,295.4866711840932L738.5674027777777,301.61208049953404L739.3234861111112,300.93063000465685L739.7330312500001,312.46972824782284L740.0165625000001,306.45530303681977L741.0246736111111,301.6340826197868L743.9860000000001,292.62145706456334L744.1435173611111,292.47604010790445L744.5530625,295.25742920809904L744.8996006944445,289.06194474939855L748.4594930555555,295.02957547169535L748.4909965277777,304.80684636684225L748.680017361111,305.3209092434861L748.7745277777777,300.971528437234L749.1525694444446,288.5722779682757L749.6251215277778,293.95128173067064L753.059,299.4117815661961L755.7998020833334,300.57367030343613L757.2174583333334,308.5764023325018L757.31196875,308.06088786142107L759.2021770833333,297.4247844265423L759.5172118055556,302.0395748672796L759.6432256944445,313.6883604104069L759.6747291666667,285.79644251911327L762.6675590277778,292.85925785853556L764.8412986111111,295.0505456359929L766.1329409722223,309.45121814599116L767.9601423611111,306.78399329234446L768.8737430555556,284.2565201571541L769.3147916666666,301.26749042501797L771.7720625,310.8913025138125L771.8665729166667,307.8204382408566L773.2842291666667,303.316633444711L775.5209756944445,306.18533237378864L776.02503125,302.1336590661172L776.6866041666666,302.1243799088536L776.9071284722222,296.5855630797528L782.5777534722222,302.6167660663455L783.2078229166667,320.6822612693864L784.2789409722221,308.9505647640998L784.7829965277778,315.82359356164386L785.1295347222222,309.24669712123944L786.9882395833334,299.1061958156785L787.0197430555555,301.5387717112558L787.1457569444444,307.9340031352931L787.5553020833333,317.5350462744014L788.0278541666667,314.1589132268852L789.9495659722221,312.30898666523655L791.8082708333333,314.7764997691975L797.3843854166666,324.2812321152925L798.9910625,310.18815842891576L799.9991736111111,315.96107258821434L800.282704861111,306.7136945712561L800.8812708333332,302.30744747870136L801.4483333333334,298.1487826045034L803.118017361111,291.76729120874467L803.7480868055555,294.0955891143624L804.4411631944444,291.5663660410848L805.1657430555556,280.0226683409297L805.7013020833334,271.85532759674095L805.7958125,291.12705396715415L805.8903229166667,314.2595515436149L807.0559513888888,297.28198688047434L807.9380486111112,306.8141875040072L808.5051111111111,285.45159956146506L808.5681180555555,293.1104434882357L811.5294444444444,313.65222516758763L812.3800381944445,299.5350940434845L813.1991284722222,303.4759780918784L813.9867152777778,290.0164647701518L814.0812256944445,298.28286128286334L817.42059375,288.38682572991934L817.546607638889,289.2323067577757L818.0191597222222,301.59976335468355L818.0821666666666,305.99156273391327L818.2396840277778,312.4494895067502L818.4287048611111,315.751166096182L819.0902777777777,319.5263487537809L820.2244027777778,315.0020360337262L820.7284583333333,305.38989633862565L823.1542256944444,310.2512553463542L824.2883506944444,317.3220016124942L824.5403784722223,298.9895818467298L824.7293993055556,309.62265711264956L825.5484895833334,300.18299952613603L825.6745034722221,283.8111296780941L826.4305868055555,297.49634435055884L826.7771250000001,296.8974207852477L827.5017048611111,306.37562666023933L828.8878576388889,319.548560279718L831.3766319444444,297.8937973279422L832.2902326388888,288.79744928868604L833.7393923611112,305.85202236150894L837.4252986111111,295.82605685149747L837.4883055555556,306.65678571972313L837.7718368055556,306.1437830479228L837.8978506944445,307.4952505169581L837.9293541666666,302.0497617764237L838.1498784722222,299.17384930037235L838.6539340277777,313.8795527967281L840.386625,314.818831042844L840.4496319444444,304.8583270135907L841.7727777777777,312.1388675184581L842.2138263888888,312.1792515324473L844.6710972222222,319.37225370199997L844.8916215277778,316.09354064494283L845.7107118055554,302.14166512442574L852.5784687500001,305.0226344931798L853.3345520833333,294.0343665315415L854.1851458333334,310.79404907427465L854.8782222222222,302.51811522668936L855.1932569444444,298.61992509445355L855.6973125000001,296.48659681025634L857.8080451388889,304.0341491209576L859.1941979166667,320.4539567104743L859.5722395833333,309.9364858836492L859.7927638888889,319.8890499378081L860.2653159722223,317.70636007168906L862.5020625000001,309.10622162831237L862.5650694444445,321.69596622787367L863.7306979166666,315.62643608293405L865.2428645833332,312.88867052127796L866.7865347222222,314.82987040194797L867.3535972222223,312.5136995645638L868.4562187500001,314.35714559225886L869.6218472222222,315.2484985898554L870.9134895833332,316.68359968055006L872.7091875000001,320.8494701325221L874.410375,309.4431603253974L875.1979618055556,317.40881963974795L879.6084479166667,315.98576458537514L880.4590416666666,299.3857753954466L881.5616631944445,314.7674671840451L883.7669062499999,314.14360220398197L883.9244236111111,327.4136798227768L884.33396875,324.71087256788854L885.0585486111112,322.97250312002285L885.4365902777778,320.76802587095966L890.3511319444444,318.59899221559806L891.4852569444445,284.6080963817265L892.1783333333333,296.2651872127469L892.4933680555555,292.2851207557847L894.8876319444445,302.3266533992805L894.9191354166667,318.9879519032211L897.8489583333333,307.947403196947L900.6527673611112,304.72415775177257L900.7157743055556,312.69551105345715L902.4169618055555,303.6462588752534L902.5114722222222,306.6520802350974L904.7167152777777,303.7851146087827L907.8355590277779,303.72553851782965L912.0885277777778,300.7636537022672L914.4197847222223,307.3011258212595L915.8059375,312.82027549949504L915.9949583333333,309.246349897676L917.4126145833334,313.50447175504365L920.5314583333333,305.0990448510742L924.8159305555556,305.2319722900448L925.5090069444444,273.63042637733565L925.9185520833333,284.5337205168284L927.3047048611111,297.3556607211139L928.3758229166667,283.7993455088838L928.5018368055555,298.1808173685295L929.1004027777777,304.907183366757L932.6917986111112,280.24020174805804L933.6369027777778,278.2293077697226L935.7791388888888,295.52653456791455L936.2201875,281.8097496518347L937.4803263888889,282.7291711721134L939.3705347222223,303.0203959499287L939.6855694444445,308.92488110092205L940.0321076388889,311.9083498037472L940.1581215277778,315.53826355238454L941.1662326388888,315.2281625576796L941.3867569444444,306.40289904199926L942.0483298611111,294.34998861465584L943.150951388889,302.85713056731464L943.7810208333333,298.6541233557457L943.8440277777778,295.3373038017548L944.3795868055555,296.64372400008426L944.8206354166666,311.4335911876229L946.7738506944445,307.5101761200786L946.8368576388889,308.68384403037595L948.6325555555554,319.5819449196611L950.9953159722222,316.0989251220934L952.94853125,328.4493443308599L957.642548611111,319.51154591123236L959.0917083333333,298.74120281003894L959.8162881944445,305.7329185529827L964.3842916666667,305.3106122893163L965.5499201388889,310.28206406228156L965.9279618055556,304.8509332700615L966.7470520833333,307.70106477125756L967.2511076388888,315.0392040352083L967.3141145833333,317.7826663743987L967.566142361111,292.83639790067286L967.6291493055556,288.3209997114492L968.952295138889,304.0360212900411L970.7479930555555,311.2486962434553L971.2205451388888,317.2125258591416L971.2520486111111,312.10849286869023L972.9217326388888,307.6921163464875L973.6778159722222,322.26692983897277L973.9928506944444,296.0548126646385L974.370892361111,297.8084559407436L976.2926041666666,305.93057659367344L978.3718333333334,294.5981852857746L978.6553645833334,306.1008017894215L979.6634756944445,320.73361944699803L979.9470069444444,312.6617001272908L980.1990347222223,308.7129509065651L980.4510625,311.6094527620536L981.4276701388889,302.33785183698706L981.4906770833334,315.7493038560695L984.8930520833333,319.8992323017565L984.9560590277779,322.5386446010936L985.7436458333334,291.9744364827992L986.1531909722223,298.47566374824174L986.2161979166666,299.3399777319176L986.4997291666666,290.916812913486L988.4844479166667,297.96847181059036L989.8706006944444,301.8769270755079L990.0281180555555,300.6555794111228L992.07584375,301.36995858016627L993.9345486111112,283.3561030525745L995.1001770833333,293.60798641883025L995.2576944444445,290.1236077262025L995.4152118055555,301.54290251958736L996.4548263888889,303.2333934845231L996.9588819444444,313.13133279706256L998.0615034722222,324.61312994594505L998.3765381944445,329.9201830574978L998.4395451388889,320.62617875332285L998.5655590277778,323.6889907932956L998.6915729166667,317.0652179807432L1000.3297534722223,321.84165760318484L1002.2514652777778,325.3455910547478L1002.2829687499999,326.1954062681239L1002.3144722222222,320.45927217458734L1005.4018125000001,327.82377846402954L1007.1660069444445,329.7209372323535L1008.5521597222222,322.69359316488794L1009.0247118055556,324.3677241813284L1009.6232777777778,319.3553832706496L1009.9698159722221,296.92564519191893L1011.3874722222222,311.63398086544936L1011.9860381944444,318.47827326442047L1012.5215972222222,326.0344205815211L1017.8141805555556,325.7844648171136L1019.6728854166668,319.1047255650363L1020.5549826388889,305.59719381562087L1022.0356458333333,323.48419188508115L1022.1301562499999,330.22633395745584L1022.4136874999999,313.00546220707434L1024.524420138889,314.8142515051914L1025.0284756944445,295.2249158774447L1025.2174965277777,307.319676364241L1027.8322847222223,290.8097567303645L1027.958298611111,303.49803026355306L1028.6198715277778,305.02306366565034L1030.3210590277777,309.7847243123881L1032.6208125,308.00949798590733L1033.061861111111,308.7792909000325L1034.1014756944444,300.7445606400475L1034.3535034722222,291.75939880767885L1034.479517361111,308.02918670575474L1036.2752152777778,306.8491692210276L1036.3382222222222,301.7708045210961L1036.9997951388889,317.30963807949564L1038.7639895833333,329.38890673557404L1039.8036041666667,311.16933152008744L1041.0322395833332,318.814029058389L1042.8279375,310.22868035221427L1046.0097881944444,315.9121210787753L1046.6083541666667,313.3981288890974L1051.05034375,314.8343410492005L1053.854152777778,299.03978015110266L1054.1061805555555,286.1295056944114L1054.73625,294.5992922023449L1055.8388715277777,282.16477685310525L1056.4374375,285.918780961214L1058.0441145833333,308.43168343369877L1058.4851631944443,306.07190221681026L1058.98921875,297.2885927700032L1059.3987638888889,297.63529154616765L1064.5653333333335,305.52081554258774L1064.6283402777776,301.79162960077275L1066.518548611111,300.7780007269975L1067.4006458333333,314.82279119722034L1070.2359583333334,312.4610341643213L1070.2989652777778,298.83077225639937L1070.614,296.25229419552L1072.9137534722222,310.6906791453026L1074.86696875,307.383879212258L1075.0874930555556,307.7743233788815L1076.158611111111,312.2401625577891L1079.2774548611112,302.9000362576118L1080.8841319444446,297.42956900747043L1082.112767361111,289.64841699317947L1082.2387812499999,287.03215457528347L1083.8454583333332,282.9328234356414L1084.6960520833334,286.685904359029L1085.672659722222,291.8382962563373L1085.8301770833334,297.945379844183L1086.5547569444445,305.97841592085814L1087.5313645833332,311.4760878505455L1088.917517361111,317.55638408693557L1090.6502083333332,298.7622846183154L1091.1542638888889,302.1326600345655L1092.2568854166666,312.18487965286874L1092.44590625,311.0275318044689L1092.8239479166666,313.599942941314L1093.6115347222221,320.0267954379892L1095.5017430555556,315.89914186784085L1095.8167777777778,318.2584973597832L1096.0373020833333,298.1214841457292L1096.5728611111113,310.15192923558254L1097.2974409722221,317.137247429962L1097.8329999999999,287.59331444899743L1098.6520902777777,309.52436793695193L1099.9122291666667,313.6418245661773L1101.4558993055555,296.03424627379684L1101.8024375,297.0556865645217L1102.5900243055555,299.4286465004246L1104.35421875,295.6622062398092L1104.7322604166666,302.62493536609986L1105.1418055555555,300.728206620049L1108.9222222222222,297.22772338217385L1110.2768715277778,291.04901433647206L1110.6234097222223,302.30668159322255L1110.6864166666667,306.72063980174846L1110.8124305555555,300.0273605143396L1112.0725694444445,311.1741353281559L1113.1121840277776,317.5892717897825L1113.6162395833333,325.4298499813636L1114.2148055555556,320.7963697676436L1115.9474965277777,313.4192751185343L1119.3183680555555,309.8606194095559L1121.7126319444444,312.16772234758224L1121.9646597222222,320.15404316675955L1121.9961631944443,314.52877088224267L1124.358923611111,319.88492962619887L1124.76846875,304.44640126318467L1125.2095173611112,310.3171889110847L1126.2806354166667,319.7997301652696L1129.430982638889,310.7760017748475L1130.7226249999999,314.207782334733L1131.57321875,311.8919086423902L1132.3608055555555,313.6351275980902L1132.6443368055554,312.2647763276358L1132.8333576388889,302.05003571515834L1133.0853854166667,298.99292354587055L1133.3059097222222,311.3807669590612L1133.9359791666666,300.5719528430621L1134.3140208333334,306.0213610080731L1135.2276215277777,290.43656714520966L1137.8424097222223,298.23285226655275L1140.772232638889,299.73713986579935L1141.8118472222222,296.2227192891401L1144.0170902777777,305.67382639608354L1144.741670138889,300.33793793421927L1145.9703055555556,306.2179344036298L1147.0414236111112,310.33142930074234L1148.9001284722224,317.57913264465554L1149.1836597222223,304.2317870462868L1150.412295138889,306.8624621414105L1152.0504756944445,317.5097568350311L1153.247607638889,315.2753509117033L1153.9406840277777,327.7996938009778L1154.9172916666666,320.7178719299865L1156.0514166666667,323.2884549806216L1156.1774305555557,326.0016349912504L1156.4294583333333,317.7492530655356L1158.4141770833335,315.22605595036293L1158.5086875,296.33830052317546L1161.1549791666666,307.1110708762787L1161.8165520833334,301.5618211587021L1162.19459375,311.9842242060452L1162.5411319444445,314.4429543924838L1163.0451875,310.97374060601055L1163.486236111111,300.7119902947052L1164.1478090277778,305.5915360274019L1164.872388888889,305.2321963579219L1165.4394513888888,304.4404116225696L1166.0695208333334,287.0627850077027L1171.0785729166666,286.07918149271455L1171.141579861111,291.0845904968511L1172.1811944444446,293.2953018397985L1173.6303541666666,304.1297381178081L1176.3081493055556,308.6108933779919L1178.2928680555556,298.4300398164485L1181.6007326388888,305.3356843302743L1182.04178125,290.23793295657214L1183.5539479166666,300.963842714641L1185.0346111111112,289.629676452913L1186.5467777777778,295.9117410075991L1187.428875,295.553276692122L1189.1300625,280.9241714215019L1191.1777881944445,295.59254750772743L1191.2092916666668,289.8212784200774L1191.5873333333334,283.79214709618884L1191.6188368055555,298.4956326407345L1194.0446041666667,288.95491918581644L1194.233625,285.9729302487746L1196.060826388889,296.6555711773222L1196.6908958333333,305.0174249421369L1197.5099861111112,307.49219486231476L1198.612607638889,302.165491250097L1201.5739340277778,311.29949060570556L1202.9600868055554,306.6113986357531L1204.2202256944445,303.61559246040275L1205.6378819444444,297.58445283183585L1205.9214131944443,298.234489024634L1208.1896631944444,298.1676833270221L1209.5128090277778,294.68015808964145L1209.9853611111112,298.21626508422315L1210.142878472222,312.63750968736986L1210.552423611111,306.22067488101663L1211.0249756944445,314.08601500809715L1213.6712673611112,314.56979591431536L1219.2158784722224,325.5286868499656L1219.46790625,296.1655037241343L1220.759548611111,287.5714947685399L1220.7910520833334,298.52999151899206L1221.8306666666667,295.2578974755334L1222.4292326388888,316.95787504613764L1223.279826388889,300.5962855011743L1224.1934270833333,298.14830566513666L1224.3509444444444,305.0281900106955L1224.4139513888888,312.744263360744L1225.0440208333332,296.916131138461L1228.6039131944444,305.7385893407408L1228.950451388889,308.2164423881239L1229.2969895833332,300.13226119214886L1231.3762187500001,306.9551657847639L1231.4392256944445,310.50958230716435L1231.7542604166667,316.4554121754911L1232.0062881944443,310.77822037859835L1233.1089097222223,308.2818617830122L1234.8416006944444,304.8209047546652L1237.330375,316.87960038939116L1237.487892361111,321.36347217922804L1240.1026805555555,324.49192028109474L1241.0792881944444,325.9127937244231" style="fill: none;" fill="none"></path></g></g></g></g><g opacity="0.2"><g><g><g><path stroke="rgb(0, 119, 187)" stroke-width="2px" d="M200.86613888888888,-31.167683847248554L202.15778125,35.099384961028925L203.4179201388889,23.989372231066227L203.44942361111111,-30.681983602543617L204.58354861111113,4.545855145901442L205.08760416666667,11.0321185824772L205.18211458333332,30.537547819316387L206.28473611111113,1.4517105147242546L206.37924652777778,-14.918611419697546L206.8202951388889,27.774206017454492L208.77351041666665,-33.85700025036931L209.02553819444444,39.60685878619552L210.12815972222222,46.077263817191124L211.13627083333333,17.64337668443721L211.41980208333334,49.659273862838745L215.70427430555554,60.18211595962446L217.34245486111112,47.534832696119956L217.65748958333333,72.03378711144131L218.63409722222224,74.84493820245069L219.26416666666668,65.98178650811315L219.29567013888888,90.61901919792098L222.7295486111111,37.26174585769575L223.01307986111112,97.43678768103324L227.10853125,115.65165870139998L230.57391319444446,129.98654550189775L231.83405208333335,132.61026311293244L234.25981944444445,158.0841291037699L234.41733680555555,134.2218516357243L234.82688194444447,168.17405428364873L235.07890972222225,147.2676431722939L235.1734201388889,179.21378677338362L236.37055208333334,168.38577277585864L238.70180902777776,152.79140087092918L238.73331249999998,148.77910722295445L239.39488541666665,156.0122957105438L240.52901041666667,134.60848073412978L240.78103819444442,155.51582813511294L242.07268055555554,172.43943872178596L242.35621180555555,140.58399817844236L242.8287638888889,176.8421651447813L243.1122951388889,157.32631968582672L244.24642013888888,194.89131290093064L244.2779236111111,177.91093975553912L244.71897222222225,152.1470580523213L245.25453124999999,133.34261715660494L246.10512500000002,130.09082475925487L247.11323611111112,182.82406106218696L247.6487951388889,176.41685558110476L251.17718402777777,178.2419766572615L254.6425659722222,177.6401179805398L254.67406944444443,162.29877834767103L255.30413888888887,114.53876144190632L255.3356423611111,177.36402957638109L256.59578125,166.90456258381408L258.29696875,151.23938377574086L258.86403125000004,210.97770500555634L259.62011458333336,133.64860831076902L260.3761979166667,187.53874748572707L260.47070833333333,191.07844894379377L263.24301388888887,198.70991163204116L264.75518055555557,211.3289891704917L267.2439548611111,182.4984078258276L267.77951388888886,191.93064805989468L268.5986041666667,209.8022518952688L269.8587430555556,180.6473047124843L270.9298611111111,161.27359972273314L271.4339166666667,229.6655193244418L272.6310486111111,200.87625175962847L272.72555902777776,193.1471223595242L272.85157291666667,193.82125089193386L273.0720972222222,206.22539144257706L273.1666076388889,183.22760189200443L273.76517361111115,197.31805858140194L274.45824999999996,215.1470027205845L276.66349305555553,179.9031885303557L278.74272222222226,199.70583120609325L280.8534548611111,179.77128872896236L281.42051736111114,191.68171205495798L282.7436631944445,185.11083144322038L283.90929166666666,224.98775782311958L284.2558298611111,228.14808642740053L286.1775416666667,236.0975949987769L286.9651284722222,241.8423755678038L287.34317013888887,232.53226261213422L287.4376805555556,239.6260024632017L288.13075694444444,244.98895241816842L289.2333784722222,245.04793866475427L289.5799166666667,231.33287559822202L290.6825381944444,199.77968105052912L291.6276423611111,195.32118687654537L293.54935416666666,232.95833291113377L293.86438888888887,247.62103811775648L297.8338263888889,246.60106760387623L300.38560763888887,256.9463072617849L300.5116215277778,285.2224588512133L301.2992083333333,251.6415242999792L302.811375,263.27740995151305L303.9770034722222,258.55918318281573L305.2686458333333,256.58595279107493L305.5206736111111,278.48333869688213L305.8042048611111,250.51130568236113L306.5287847222222,272.32068036310375L308.00944791666666,264.77298633754253L309.7421388888889,269.08138158048195L309.86815277777777,271.0628045064708L310.1201805555556,281.0235217176378L311.31731249999996,271.38322037272155L312.19940972222224,233.64106360450387L317.52349652777775,270.4607995344947L317.80702777777776,276.67697267234325L317.8700347222222,249.2005002026757L319.19318055555556,277.03501567803323L319.31919444444446,282.9777044672519L319.9177604166666,248.44614335273707L320.9258715277778,296.23574115894735L321.3354166666667,260.9123130912582L322.1230034722222,288.4062532143047L322.5325486111111,261.39280522490543L323.0051006944444,300.3106199167669L323.28863194444443,278.1863008122891L324.32824652777776,258.7909733839333L325.0843298611111,276.79997772226733L325.1788402777778,265.1310586022834L326.4389791666667,302.5339274164289L327.73062152777777,279.33688372932374L329.0537673611111,323.5936852134764L329.3372986111111,271.899525584653L331.0699895833333,300.11385279955965L336.0475381944444,317.74837054560584L338.03225694444444,287.3909348895153L338.91435416666667,325.44227204844356L339.6389340277778,293.0271643797557L341.2456111111111,286.07489203972125L342.3167291666667,278.0878441060583L342.72627430555553,266.7605829232683L345.15204166666666,343.6276499455174L345.93962847222224,260.65711564943194L346.44368402777775,298.363810447976L346.82172569444447,315.3512057655802L348.2078784722222,349.97504992658895L350.0350798611111,340.45137515850365L350.8856736111111,269.3453859966248L351.0116875,291.28493419475853L353.6264756944444,337.24578280250233L354.19353819444444,314.6996067023526L355.3276631944444,341.99332714018726L356.99734722222223,339.7761933002621L357.0603541666667,263.64812212623656L357.8164375,323.9325635408362L357.8479409722222,326.54112496351206L358.0054583333333,320.88072749723995L358.16297569444447,268.4179618606965L363.17202777777777,339.7501234859228L363.8966076388889,310.63315455118817L364.3061527777778,311.31980595737696L364.46367013888886,353.0777967187266L364.9677256944444,340.4542132864396L365.12524305555553,293.3968524876982L365.4087743055556,361.89682576432824L365.9128298611111,361.76056636435294L367.74003125,329.96741834034526L369.53572916666667,319.6812527061751L370.16579861111114,369.2548918810984L371.80397916666664,273.00203588108224L373.0641180555555,315.42786447890103L373.3161458333333,269.89355431497097L375.39537499999994,359.72858379843336L375.48988541666665,282.63364728788537L375.8364236111111,316.4132800536851L377.7581354166667,355.7248337933173L377.91565277777784,310.0650608191888L377.9786597222222,364.5539572114746L379.74285416666663,306.06815743198L381.72757291666665,353.3128639335434L381.8220833333333,358.8321157383422L382.0111041666667,320.0471078784516L383.2082361111111,366.11012909188867L384.56288541666663,348.2254464607686L386.01204513888894,268.02352059570455L386.6736180555555,371.0457213496169L387.7447361111111,351.76450421971583L388.6898402777778,333.27550515159965L389.1623923611111,375.91123818047345L389.60344097222224,272.0417538310091L391.77718055555556,384.85464745139086L392.6592777777778,305.7542955931276L392.7852916666667,361.8085512078057L392.8482986111111,361.6800454563151L393.22634027777775,367.45417285338044L393.98242361111113,352.8578856922686L394.3604652777778,311.30915566285455L394.8015138888889,264.5121711579462L395.1480520833333,368.76530018262565L396.72322569444447,313.98887509728473L397.0697638888889,257.38958188270533L398.14088194444446,321.1802816602091L398.32990277777776,329.6112186548611L398.8339583333333,337.2075997410963L400.9446909722222,296.20171288276714L401.0392013888889,281.1753176736335L401.8582916666666,307.8568509897838L403.0554236111111,341.47909932086867L403.0869270833333,360.901462112243L403.90601736111114,354.98185871417326L404.97713541666667,299.9854640842726L406.23727430555556,355.591119930769L406.42629513888886,310.775177984188L407.30839236111115,307.9012954880794L409.10409027777774,350.13135177642107L410.9942986111111,332.72189464978874L412.00240972222224,345.7369934419791L413.38856250000003,318.9136415061852L414.0816388888889,364.56024790741503L416.34988888888887,366.3140061584612L416.7594340277778,320.85658878025913L418.27160069444443,322.13260524844134L418.71264930555554,293.8320516105741L418.87016666666665,328.54209293549263L421.4219479166667,325.8398440318803L422.0520173611111,330.21843173789483L425.01334375,285.0767195187509L426.80904166666664,363.00512935283285L426.99806250000006,317.74611759868765L429.01428472222227,355.2162529708197L430.3059270833333,362.5282653414955L430.43194097222226,354.8613406835745L431.4085486111111,326.5891098069648L432.3536527777778,341.63019305964315L433.23575,351.0584833218406L433.9918333333333,358.91079332617426L434.05484027777777,351.9605398606509L435.47249652777776,319.849141140158L435.78753125000003,342.12177437357605L436.9531597222222,369.9493847129246L437.17368402777777,353.52908831958973L438.4338229166667,344.26093284289044L440.5760590277778,373.8646846072128L441.23763194444444,348.3511140843233L442.0882256944444,317.38974235889816L442.8758125,326.14574740889174L444.86053125,373.68418552229804L445.8371388888889,349.18455814880633L447.72734722222225,337.0060048804929L448.9874861111111,339.0908878104141L450.2161215277778,307.16513776779175L450.59416319444443,372.7201290546606L450.87769444444444,312.24126124692464L451.35024652777776,355.49775429939234L451.9173090277778,314.6002137064934L452.35835763888883,366.4301353314271L452.76790277777775,340.83051393988234L452.92542013888885,325.04712856623036L453.2404548611111,348.54200013230246L455.41419444444443,350.59812141520285L457.99747916666666,338.79899951877695L458.2810104166666,355.3370928509782L458.87957638888895,356.44282164300483L462.1874409722222,326.1824382587026L462.2189444444445,307.40207756186527L463.47908333333334,319.8277820330113L464.7707256944444,307.36281191557646L464.8022291666666,312.7180082220584L465.36929166666664,313.61190148567164L466.6609340277778,294.24808605511987L467.00747222222225,336.8340786974877L467.4170173611111,332.6720372270793L467.8265625,276.13102804186445L468.3621215277778,312.42518364079297L469.21271527777776,355.79081295306486L469.9372951388889,346.903142174085L470.9139027777778,291.75615120927495L470.94540625,338.3144403770566L470.97690972222216,335.64212348250055L471.2919444444444,357.2328160169224L471.70148958333334,373.198280464237L471.89051041666664,362.6928767617792L472.3315590277778,307.90863950985175L474.5368020833333,360.81330459192395L475.3873958333333,306.9705065612992L476.36400347222224,352.4090518516799L476.89956249999994,371.5155924477925L478.56924652777775,364.72406933332485L479.1048055555556,333.75649468911195L479.3253298611111,375.58216163516045L481.02651736111113,349.12747374052805L481.37305555555554,317.1749809253961L483.3262708333333,354.2234348561615L483.42078125000006,329.97792233961326L483.4522847222222,372.3115556680908L484.9959548611111,381.8668887292346L486.5711284722222,271.06789558132493L486.7601493055556,325.7787218745798L486.79165277777776,320.10062268252176L486.9806736111111,380.5163201993952L488.33532291666666,382.250943031162L488.8708819444445,332.0615763893972L490.22553125,321.4858339286099L491.32815277777775,351.25516266189516L492.49378125,302.02923804769915L492.80881597222225,299.03826082994544L492.8718229166667,247.61261151110136L494.8250381944444,317.0068584190061L495.14007291666667,338.84566770493984L495.3605972222223,313.5757665578276L496.8412604166666,335.55142042475444L499.07800694444444,294.2719029225409L504.7801354166666,329.1194910456737L504.93765277777777,318.5403252759328L505.1896805555555,325.82389784914756L505.75674305555555,281.77477710818255L507.01688194444444,305.71772177952033L507.77296527777776,336.31244833829504L507.9619861111112,325.24310568906367L509.41114583333336,354.2782955765724L510.7342916666667,329.16817810634774L510.9233125,281.35809896451735L511.17534027777776,352.54996344074607L514.4832048611112,316.04862450249493L516.467923611111,327.81093851290643L516.7829583333333,338.14450380951166L516.9404756944444,348.88614508882165L518.01159375,295.73523583449423L518.57865625,328.145779091244L522.2645625,316.88218560318154L523.3041770833333,290.6213096616169L525.9819722222222,321.3005656184008L527.2421111111112,351.5246385205537L527.8721805555556,369.17021618783474L528.1557118055555,337.83590859981877L528.8172847222222,268.1549815113346L529.8568993055555,367.9029774349183L530.7389965277778,333.0151581168175L531.3690659722222,332.4755627003809L531.6525972222222,336.3510117673626L534.1413715277778,334.96702940141165L534.6769305555556,332.4583876375109L536.4096215277777,329.5678567414483L537.9532916666667,340.72828281608724L541.0721354166667,314.19936470935744L541.1981493055556,334.9176401235163L542.9623437500001,230.01223907743895L544.09646875,343.47992099759483L545.0730763888889,322.31161212176085L545.1360833333333,324.71869572003686L545.5141249999999,322.85515751006704L546.7112569444445,318.3275241988401L547.9713958333333,318.8950327498218L548.0974097222222,320.2789565976709L548.1604166666666,318.86673924761516L548.8219895833333,343.7055375389755L548.8534930555555,345.0461579915136L549.3260451388888,308.2316301725805L549.7040868055556,347.3937579393387L550.5546805555556,332.7905656422178L550.6176875,323.172705989331L550.6806944444444,278.624338063101L553.0119513888889,317.83676213833195L554.4926145833333,300.8319284263998L555.9732777777778,302.6681094237914L557.8634861111111,332.50976653086644L560.1947430555555,328.97969130054116L560.4782743055556,342.32588551255566L563.94365625,357.1979977463683L564.0696701388889,321.8909547471752L565.2983055555555,317.16871948850655L566.1804027777778,336.05283277978504L566.3064166666667,284.3526457864791L566.9679895833333,285.1364372416089L567.3775347222222,305.6147006613513L567.8185833333333,285.0390046021591L568.5746666666666,314.22002159928286L569.9608194444444,302.7969370248417L572.9851527777778,292.0950880547365L575.28490625,307.10073859679204L576.6395555555555,298.0417853339265L578.0572118055555,340.9005308486521L579.2858472222222,298.4828655260305L580.2309513888889,328.4936106881748L581.396579861111,364.983655632784L583.5073125,350.2399321142584L584.3894097222222,324.31691043327254L584.6414374999999,331.16677609520656L586.6891631944445,275.14488099080825L587.2877291666666,331.1631772319476L587.4452465277778,321.83009592133266L592.3282847222222,337.82127907437587L593.8089479166666,321.916117530937L595.1005902777778,325.21059888352954L595.9196805555555,327.54494448130333L597.6523715277777,338.6051875657092L597.9359027777778,327.11252496826154L598.7549930555556,330.26773323863745L600.0151319444444,268.18055392180884L604.1420868055556,332.21366493590176L604.488625,311.72413678156835L605.0556875,310.2991039672246L606.6938680555555,351.5670641443382L606.9143923611111,313.56432626893127L609.7182013888889,324.4330981243402L609.9387256944444,290.07659391127527L611.1358576388889,332.7383382363866L611.3248784722223,307.3448468583326L611.7659270833333,337.79986144912743L612.0494583333334,325.04984965796274L615.4203298611111,298.9145535628001L616.7434756944444,347.26516441069543L618.1926354166667,300.0446258851638L618.8857118055555,305.8060255950938L622.0360590277778,289.4483143116037L622.5086111111111,328.7864060103893L624.3673159722222,325.4111989364028L625.3754270833333,334.8584198045234L625.7849722222222,297.9357212744653L625.9109861111111,340.2217793862025L627.5806701388889,321.7168926534554L627.7066840277778,323.8575433343649L628.1792361111111,312.6438657871137L630.6680104166667,339.33426459568244L632.1171701388889,283.07045565856004L632.1486736111111,313.7933368602147L632.2746875,275.33594259309274L633.5348263888889,349.3296537821492L633.975875,331.233545249328L634.4169236111112,268.6752952132374L634.8894756944444,340.7818268792083L635.6140555555555,304.15040220071876L635.8975868055555,300.1034365774443L636.3386354166666,317.7406168971211L640.5916041666667,342.14635197632015L641.0326527777778,314.5065847436587L641.4737013888889,332.532178963845L641.7572326388888,318.747859723866L643.2693993055556,309.54743894996744L643.9624756944445,297.3923514404645L644.4350277777778,305.1169164286306L644.6240486111111,309.57508875305456L645.5061458333333,306.99406009726226L649.2865625000001,272.2951664707313L650.1686597222222,313.41849915931624L651.1137638888889,311.29935388080776L652.4999166666666,291.60988521389663L652.8149513888889,317.36010294035077L653.6655451388889,313.41042366127175L654.0120833333333,291.89185468728346L655.0516979166667,323.5577843580395L655.3037256944444,306.38286778330803L655.9022916666667,298.761323913311L656.2488298611111,271.6108557886134L657.5719756944444,303.4303369584183L659.0841423611112,327.8943853260329L659.1156458333332,305.5913226796935L662.5810277777778,347.48791356508934L663.9671805555556,298.16912072338164L665.2588229166666,295.24751671527827L667.4010590277778,290.45860007964075L667.4325625,275.9454964001974L669.1022465277778,325.69811318938935L669.1652534722223,317.33230684200925L669.3542743055556,300.0817556207379L671.4335034722222,340.13724998819333L672.4731180555556,268.58912730837864L673.9222777777778,352.3432189871868L674.52084375,319.33514739324653L675.0248993055556,283.8384179671606L680.6325173611111,316.2494878868262L684.6019548611112,344.2911281834046L684.72796875,339.08843005013966L687.8468125,340.50114480406046L688.8549236111112,313.30845586893463L689.2959722222222,267.06297521417343L689.3904826388889,346.8115320857614L690.1465659722222,304.83766804697615L691.406704861111,309.02513563260436L691.5327187500001,313.3146295286715L693.1393958333333,330.2102392036468L693.5804444444444,283.7027730072538L694.7775763888889,326.6846406081071L695.4706527777778,325.1120836591969L696.8568055555556,319.12041521879536L697.0458263888889,302.246866868188L697.0773298611111,303.50518161058426L697.5813854166666,296.392686707899L697.9594270833334,282.6744344048202L700.2906840277778,309.2964840705196L700.9522569444445,325.6678300717225L701.3618020833334,319.2673249132931L701.6768368055556,313.9071838272115L701.9288645833333,312.26522440960014L705.4887569444444,305.5467026270926L706.6543854166666,275.57972900507355L709.3006770833333,296.26994498943293L710.81284375,293.4702927054217L712.9865833333333,286.57291034484905L713.0180868055556,282.22135800185305L714.2152187500001,301.1431569506725L714.7507777777777,320.19793828576803L715.0343090277778,199.2370426928004L716.1054270833333,343.47690731535357L717.2710555555557,301.3883770561467L718.7202152777777,334.6090449138234L720.5789201388889,347.5476312879473L720.8309479166666,337.94375746138394L720.9569618055556,329.50509607729816L722.5321354166667,304.47716728101176L724.7373784722223,313.9752403795719L724.8318888888889,306.8547577559948L725.6824826388888,343.2893860582262L727.3521666666667,257.7634540349245L728.0137395833333,251.7418243264159L728.39178125,319.5832641447584L728.6438090277777,314.1405832761278L728.7698229166667,318.1049798578024L728.8958368055556,321.0237457379699L731.1010798611111,342.2088493090123L733.2748194444443,293.82421018493676L735.0390138888889,300.90571975273394L735.4485590277778,315.3854095960657L737.3387673611111,275.5614713573208L738.0948506944445,293.54841437128687L738.5674027777777,310.8001944726954L739.3234861111112,299.9084542623411L739.7330312500001,329.77837561257184L740.0165625000001,297.4336652203153L741.0246736111111,294.4022519942373L743.9860000000001,279.1025187317282L744.1435173611111,292.2579146729162L744.5530625,299.4295128583908L744.8996006944445,279.76871806134784L748.4594930555555,303.9810215551406L748.4909965277777,319.4727527095626L748.680017361111,306.09200355845195L748.7745277777777,294.4474572278559L749.1525694444446,269.97340226483846L749.6251215277778,302.01978737426305L753.059,307.6025313194841L755.7998020833334,302.3165034092963L757.2174583333334,320.58050037610036L757.31196875,307.2876161547999L759.2021770833333,281.4706292742243L759.5172118055556,308.96176052838564L759.6432256944445,331.161538725098L759.6747291666667,243.95856568217278L762.6675590277778,303.453480867669L764.8412986111111,298.33747730217874L766.1329409722223,331.0522269109885L767.9601423611111,302.7831560118745L768.8737430555556,250.4653104543686L769.3147916666666,326.7839458268136L771.7720625,325.32702064700425L771.8665729166667,303.21414183142286L773.2842291666667,296.56092625049257L775.5209756944445,310.48838076740503L776.02503125,296.0561491046101L776.6866041666666,302.11046117295825L776.9071284722222,288.27733783610165L782.5777534722222,311.66357054623467L783.2078229166667,347.78050407394767L784.2789409722221,291.3530200061699L784.7829965277778,326.13313675795996L785.1295347222222,299.38135246063274L786.9882395833334,283.89544385733706L787.0197430555555,305.18763555462164L787.1457569444444,317.5268502713492L787.5553020833333,331.9366109830638L788.0278541666667,309.0947136556109L789.9495659722221,309.5340968227635L791.8082708333333,318.47776942513883L797.3843854166666,338.53833063443506L798.9910625,289.0485478993505L799.9991736111111,324.6204438271622L800.282704861111,292.8426275458187L800.8812708333332,295.69807683986926L801.4483333333334,291.9107852932066L803.118017361111,282.1950541151067L803.7480868055555,297.58803597278893L804.4411631944444,287.7725314311683L805.1657430555556,262.7071217906972L805.7013020833334,259.6043164804578L805.7958125,320.0346435227742L805.8903229166667,348.9582979083061L807.0559513888888,271.81563988576335L807.9380486111112,321.1124884393066L808.5051111111111,253.40771764765185L808.5681180555555,304.5987093783915L811.5294444444444,344.4648976866156L812.3800381944445,278.3593973573297L813.1991284722222,309.38730416446924L813.9867152777778,269.8271947875619L814.0812256944445,310.6824560519308L817.42059375,273.5427724005034L817.546607638889,290.5005282995602L818.0191597222222,320.1509482500454L818.0821666666666,312.5792618027578L818.2396840277778,322.1363796660056L818.4287048611111,320.70368098032975L819.0902777777777,325.1891227401793L820.2244027777778,308.21556695364416L820.7284583333333,290.9716867959748L823.1542256944444,317.543293857947L824.2883506944444,327.9281210117042L824.5403784722223,271.4909521980832L824.7293993055556,325.5722700115293L825.5484895833334,286.0235131463657L825.6745034722221,259.2533249060313L826.4305868055555,318.02416635925573L826.7771250000001,295.99903543728095L827.5017048611111,320.5929354727268L828.8878576388889,339.3079607089361L831.3766319444444,265.41165290027857L832.2902326388888,275.15292722980183L833.7393923611112,331.43388197074336L837.4252986111111,280.78710858648026L837.4883055555556,322.9028790220618L837.7718368055556,305.3742790402224L837.8978506944445,309.52245172051096L837.9293541666666,293.8815286656221L838.1498784722222,294.85998058629536L838.6539340277777,335.93810804126167L840.386625,316.22774841201806L840.4496319444444,289.91757096971077L841.7727777777777,323.05967827575904L842.2138263888888,312.2398275534312L844.6710972222222,330.161756956329L844.8916215277778,311.17547105935716L845.7107118055554,281.21385184365016L852.5784687500001,309.3440885463109L853.3345520833333,277.5519645890842L854.1851458333334,335.93357288837433L854.8782222222222,290.10421445531153L855.1932569444444,292.7726398960998L855.6973125000001,293.28660438396037L857.8080451388889,315.3554775870095L859.1941979166667,345.08366809474927L859.5722395833333,294.16027964341146L859.7927638888889,334.81789601904654L860.2653159722223,314.43232527251047L862.5020625000001,296.20601396324736L862.5650694444445,340.5805831272155L863.7306979166666,306.52214086552465L865.2428645833332,308.78202217879397L866.7865347222222,317.74167022295296L867.3535972222223,309.03944330848753L868.4562187500001,317.1223146338016L869.6218472222222,316.58552808625006L870.9134895833332,318.8362513165921L872.7091875000001,327.0982758104801L874.410375,292.33369561471045L875.1979618055556,329.35730861127377L879.6084479166667,313.851182003816L880.4590416666666,274.48579161055386L881.5616631944445,337.84000486694276L883.7669062499999,313.2078047338873L883.9244236111111,347.31879625096917L884.33396875,320.6566616855562L885.0585486111112,320.3649489482244L885.4365902777778,317.4613099973649L890.3511319444444,315.3454417325556L891.4852569444445,233.62175263091922L892.1783333333333,313.75082345927757L892.4933680555555,286.3150210703413L894.8876319444445,317.38895236452424L894.9191354166667,343.979899659132L897.8489583333333,291.38658013753593L900.6527673611112,299.88928958401084L900.7157743055556,324.65254100598395L902.4169618055555,290.0723806079477L902.5114722222222,311.16081227486336L904.7167152777777,299.48466616931063L907.8355590277779,303.63617438140017L912.0885277777778,296.3208264789234L914.4197847222223,317.10733399974805L915.8059375,321.09900001684827L915.9949583333333,303.8854614949475L917.4126145833334,319.89165454109514L920.5314583333333,292.49090449512005L924.8159305555556,305.43136344850063L925.5090069444444,226.22810750827193L925.9185520833333,300.8886617260675L927.3047048611111,316.5885710275422L928.3758229166667,263.4648726905386L928.5018368055555,319.753025157998L929.1004027777777,314.99673236409825L932.6917986111112,243.2397293200096L933.6369027777778,275.21296680221957L935.7791388888888,321.4723747652024L936.2201875,261.23457227771485L937.4803263888889,284.1083034525315L939.3705347222223,333.4572331166516L939.6855694444445,317.78160882741213L940.0321076388889,316.38355285798514L940.1581215277778,320.98313417534035L941.1662326388888,314.7630110656222L941.3867569444444,293.16500376847887L942.0483298611111,276.2706229736408L943.150951388889,315.6178434963028L943.7810208333333,292.34961253839236L943.8440277777778,290.3620744707684L944.3795868055555,298.60335429757833L944.8206354166666,333.6183919689308L946.7738506944445,301.62505351876223L946.8368576388889,310.44434589582187L948.6325555555554,335.9290962535888L950.9953159722222,310.8743954257419L952.94853125,346.9749731440097L957.642548611111,306.10484828179085L959.0917083333333,267.5856881582489L959.8162881944445,316.22049216739833L964.3842916666667,304.67715289381647L965.5499201388889,317.73924172172946L965.9279618055556,296.7042370817314L966.7470520833333,311.9762620230516L967.2511076388888,326.04641293113434L967.3141145833333,321.89785988318425L967.566142361111,255.41699519008398L967.6291493055556,281.54790242761374L968.952295138889,327.6085536579291L970.7479930555555,322.06770867357653L971.2205451388888,326.15827028267086L971.2520486111111,304.45244338301325L972.9217326388888,301.0675515631835L973.6778159722222,344.1291500777006L973.9928506944444,256.73663690313697L974.370892361111,300.4389208549013L976.2926041666666,318.11375757306814L978.3718333333334,277.59959832392633L978.6553645833334,323.35472654489183L979.6634756944445,342.68284593336284L979.9470069444444,300.55382114773L980.1990347222223,302.78982707547647L980.4510625,315.95420554528636L981.4276701388889,288.43045044938725L981.4906770833334,335.86648188469314L984.8930520833333,326.1241249702871L984.9560590277779,326.49776305009925L985.7436458333334,246.12812430535757L986.1531909722223,308.2275046464056L986.2161979166666,300.63644870743155L986.4997291666666,278.28206568583846L988.4844479166667,308.545960156247L989.8706006944444,307.7396099728843L990.0281180555555,298.8235579145452L992.07584375,302.44152733373147L993.9345486111112,256.33531976118684L995.1001770833333,308.9858114682138L995.2576944444445,284.897039687261L995.4152118055555,318.6718447096646L996.4548263888889,305.7691299319267L996.9588819444444,327.97824176587164L998.0615034722222,341.8358256692688L998.3765381944445,337.88076272482675L998.4395451388889,306.6851722970605L998.5655590277778,328.28320885325473L998.6915729166667,307.1295587619146L1000.3297534722223,329.0063170368473L1002.2514652777778,330.6014912320922L1002.2829687499999,327.47012908818823L1002.3144722222222,311.85507103428245L1005.4018125000001,338.8705378981928L1007.1660069444445,332.5666753848394L1008.5521597222222,312.15257706368965L1009.0247118055556,326.878920705989L1009.6232777777778,311.8368719046315L1009.9698159722221,263.28103807382286L1011.3874722222222,333.69648437574506L1011.9860381944444,328.744711862877L1012.5215972222222,337.36864155717194L1017.8141805555556,325.4095311705023L1019.6728854166668,309.08511668692034L1020.5549826388889,285.3358961914977L1022.0356458333333,350.31468898927176L1022.1301562499999,340.339547066018L1022.4136874999999,287.1741545815021L1024.524420138889,317.5274354523669L1025.0284756944445,265.8409124358247L1025.2174965277777,325.46181709443533L1027.8322847222223,266.04487727954984L1027.958298611111,322.530440563336L1028.6198715277778,307.31061376879614L1030.3210590277777,316.92721528249484L1032.6208125,305.34665849618614L1033.061861111111,309.9339802712202L1034.1014756944444,288.6924652500699L1034.3535034722222,278.2816560591261L1034.479517361111,332.4338685528686L1036.2752152777778,305.07914299393696L1036.3382222222222,294.15325747119886L1036.9997951388889,340.61788841709495L1038.7639895833333,347.5078097196917L1039.8036041666667,283.8399686968575L1041.0322395833332,330.2810753658414L1042.8279375,297.3506572929522L1046.0097881944444,324.4372821686169L1046.6083541666667,309.62714060458046L1051.05034375,316.9886592893551L1053.854152777778,275.3479388039559L1054.1061805555555,266.7640940093746L1054.73625,307.3039719642451L1055.8388715277777,263.5130038292458L1056.4374375,291.54978712337714L1058.0441145833333,342.2010371424258L1058.4851631944443,302.5322303914776L1058.98921875,284.1136285997927L1059.3987638888889,298.1553397104144L1064.5653333333335,317.34910153721773L1064.6283402777776,296.1978506880502L1066.518548611111,299.25755741633475L1067.4006458333333,335.88997690255445L1070.2359583333334,308.91839861497283L1070.2989652777778,278.38537939451635L1070.614,292.38457710420096L1072.9137534722222,332.3482565699766L1074.86696875,302.4236793126911L1075.0874930555556,308.35998962881666L1076.158611111111,318.93892132615053L1079.2774548611112,288.88984680734575L1080.8841319444446,289.2238681322585L1082.112767361111,277.976688971743L1082.2387812499999,283.1077609484395L1083.8454583333332,276.78382672617835L1084.6960520833334,292.31552574411035L1085.672659722222,299.5668841022998L1085.8301770833334,307.1060052259515L1086.5547569444445,318.0279700358709L1087.5313645833332,319.7225957450768L1088.917517361111,326.67682844152057L1090.6502083333332,270.5711354153852L1091.1542638888889,307.1882231589407L1092.2568854166666,327.2632090803236L1092.44590625,309.29151003186905L1092.8239479166666,317.45855964658165L1093.6115347222221,329.6670741830021L1095.5017430555556,309.7076615126183L1095.8167777777778,321.7975305976967L1096.0373020833333,267.9159643246482L1096.5728611111113,328.19759687036276L1097.2974409722221,327.6152247215311L1097.8329999999999,243.2774149775505L1098.6520902777777,342.42094816888374L1099.9122291666667,319.8180095100155L1101.4558993055555,269.6228788352261L1101.8024375,298.58784700060886L1102.5900243055555,302.9880864042789L1104.35421875,290.0125458488862L1104.7322604166666,313.0690290555358L1105.1418055555555,297.8831135009726L1108.9222222222222,291.97699852536124L1110.2768715277778,281.7809507679194L1110.6234097222223,319.19318247834843L1110.6864166666667,313.34157711453736L1110.8124305555555,289.98744158322614L1112.0725694444445,327.8942975488802L1113.1121840277776,327.2119764822225L1113.6162395833333,337.19071726873517L1114.2148055555556,313.8461494470636L1115.9474965277777,302.3536331448704L1119.3183680555555,304.52263584608835L1121.7126319444444,315.6283767546217L1121.9646597222222,332.13352439552546L1121.9961631944443,306.0908624554674L1124.358923611111,327.91916774213314L1124.76846875,281.28860871866345L1125.2095173611112,319.1233703829348L1126.2806354166667,334.02354204654694L1129.430982638889,297.24040918921435L1130.7226249999999,319.35545317456126L1131.57321875,308.41809810387593L1132.3608055555555,316.2499560316404L1132.6443368055554,310.20924942195415L1132.8333576388889,286.7279247964422L1133.0853854166667,294.4072552919388L1133.3059097222222,329.9625320788473L1133.9359791666666,284.3587316690634L1134.3140208333334,314.1954732555896L1135.2276215277777,267.0593763509145L1137.8424097222223,309.9272799485674L1140.772232638889,301.9935712646693L1141.8118472222222,290.9510884241512L1144.0170902777777,319.85048705649876L1144.741670138889,292.3341052414229L1145.9703055555556,315.0379291077455L1147.0414236111112,316.50167164641124L1148.9001284722224,328.45068766052526L1149.1836597222223,284.21076864873373L1150.412295138889,310.8084747840961L1152.0504756944445,333.48069887546205L1153.247607638889,311.9237420267115L1153.9406840277777,346.5862081348896L1154.9172916666666,310.0951391234994L1156.0514166666667,327.14432955657446L1156.1774305555557,330.0714050071935L1156.4294583333333,305.37068017696345L1158.4141770833335,311.4412602776041L1158.5086875,268.0066673823943L1161.1549791666666,323.2702264059335L1161.8165520833334,293.23794658233726L1162.19459375,327.6178287770599L1162.5411319444445,318.13104967214167L1163.0451875,305.76991992630064L1163.486236111111,285.31936482774717L1164.1478090277778,312.91085462644696L1164.872388888889,304.6931868537019L1165.4394513888888,303.25273451954126L1166.0695208333334,260.99634508540237L1171.0785729166666,284.60377622023225L1171.141579861111,298.5927040030559L1172.1811944444446,296.61136885421973L1173.6303541666666,320.3813925348222L1176.3081493055556,315.33262626826763L1178.2928680555556,283.1587594741335L1181.6007326388888,315.69415110101306L1182.04178125,267.591305896019L1183.5539479166666,317.0527073517442L1185.0346111111112,272.628427060321L1186.5467777777778,305.3348378396283L1187.428875,295.0155802189062L1189.1300625,258.9805135155718L1191.1777881944445,317.5951116370658L1191.2092916666668,281.16437478860223L1191.5873333333334,274.74845011035603L1191.6188368055555,320.550860957553L1194.0446041666667,274.6438490034392L1194.233625,281.4999468432119L1196.060826388889,312.6795325701436L1196.6908958333333,317.56020558935904L1197.5099861111112,311.2043497425815L1198.612607638889,294.1754358317703L1201.5739340277778,325.0004896391183L1202.9600868055554,299.5792606808245L1204.2202256944445,299.12188319737714L1205.6378819444444,288.53774338898563L1205.9214131944443,299.2095433138311L1208.1896631944444,298.06747478060424L1209.5128090277778,289.4488702335706L1209.9853611111112,303.5204255760958L1210.142878472222,334.26937659208977L1210.552423611111,296.595422671487L1211.0249756944445,325.88402519871795L1213.6712673611112,315.29546727364266L1219.2158784722224,341.96702325344086L1219.46790625,252.12072903538746L1220.759548611111,274.6804813351482L1220.7910520833334,314.96773664467037L1221.8306666666667,290.34975641034544L1222.4292326388888,349.50784140204394L1223.279826388889,276.0539011837294L1224.1934270833333,294.47633591108024L1224.3509444444444,315.3480165290336L1224.4139513888888,324.3183733858168L1225.0440208333332,273.17393280503654L1228.6039131944444,318.9722766441604L1228.950451388889,311.93322195919853L1229.2969895833332,288.00598939818644L1231.3762187500001,317.1895226736864L1231.4392256944445,315.84120709076524L1231.7542604166667,325.37415697798133L1232.0062881944443,302.26243268325925L1233.1089097222223,304.53732388963306L1234.8416006944444,299.6294692121446L1237.330375,334.96764384148025L1237.487892361111,328.0892798639834L1240.1026805555555,329.1845924338947L1241.0792881944444,328.0441038894157" style="fill: none;" fill="none"></path></g></g></g></g></g></g><g transform="translate(72, 377)" clip-path="url(#clip_1)"><clipPath id="clip_1"><rect width="1417" height="23"></rect></clipPath><g><g><line x1="0" y1="0" x2="0" y2="5" style="visibility: inherit;" fill="rgb(0, 0, 0)" stroke="rgb(204, 204, 204)" stroke-width="1px"></line><line x1="157.51736111111111" y1="0" x2="157.51736111111111" y2="5" style="visibility: inherit;" fill="rgb(0, 0, 0)" stroke="rgb(204, 204, 204)" stroke-width="1px"></line><line x1="315.03472222222223" y1="0" x2="315.03472222222223" y2="5" style="visibility: inherit;" fill="rgb(0, 0, 0)" stroke="rgb(204, 204, 204)" stroke-width="1px"></line><line x1="472.5520833333333" y1="0" x2="472.5520833333333" y2="5" style="visibility: inherit;" fill="rgb(0, 0, 0)" stroke="rgb(204, 204, 204)" stroke-width="1px"></line><line x1="630.0694444444445" y1="0" x2="630.0694444444445" y2="5" style="visibility: inherit;" fill="rgb(0, 0, 0)" stroke="rgb(204, 204, 204)" stroke-width="1px"></line><line x1="787.5868055555555" y1="0" x2="787.5868055555555" y2="5" style="visibility: inherit;" fill="rgb(0, 0, 0)" stroke="rgb(204, 204, 204)" stroke-width="1px"></line><line x1="945.1041666666666" y1="0" x2="945.1041666666666" y2="5" style="visibility: inherit;" fill="rgb(0, 0, 0)" stroke="rgb(204, 204, 204)" stroke-width="1px"></line><line x1="1102.6215277777778" y1="0" x2="1102.6215277777778" y2="5" style="visibility: inherit;" fill="rgb(0, 0, 0)" stroke="rgb(204, 204, 204)" stroke-width="1px"></line><line x1="1260.138888888889" y1="0" x2="1260.138888888889" y2="5" style="visibility: inherit;" fill="rgb(0, 0, 0)" stroke="rgb(204, 204, 204)" stroke-width="1px"></line><line x1="1417.65625" y1="0" x2="1417.65625" y2="5" style="visibility: inherit;" fill="rgb(0, 0, 0)" stroke="rgb(204, 204, 204)" stroke-width="1px"></line></g><g transform="translate(0, 8)"><text x="0" y="0" dx="0em" dy="0.95em" style="text-anchor: middle; visibility: hidden; font-family: Roboto, sans-serif; font-size: 12px; font-weight: 200;" fill="rgb(33, 33, 33)" stroke="none" stroke-width="1px">-5k</text><text x="157.51736111111111" y="0" dx="0em" dy="0.95em" style="text-anchor: middle; visibility: inherit; font-family: Roboto, sans-serif; font-size: 12px; font-weight: 200;" fill="rgb(33, 33, 33)" stroke="none" stroke-width="1px">0</text><text x="315.03472222222223" y="0" dx="0em" dy="0.95em" style="text-anchor: middle; visibility: inherit; font-family: Roboto, sans-serif; font-size: 12px; font-weight: 200;" fill="rgb(33, 33, 33)" stroke="none" stroke-width="1px">5k</text><text x="472.5520833333333" y="0" dx="0em" dy="0.95em" style="text-anchor: middle; visibility: inherit; font-family: Roboto, sans-serif; font-size: 12px; font-weight: 200;" fill="rgb(33, 33, 33)" stroke="none" stroke-width="1px">10k</text><text x="630.0694444444445" y="0" dx="0em" dy="0.95em" style="text-anchor: middle; visibility: inherit; font-family: Roboto, sans-serif; font-size: 12px; font-weight: 200;" fill="rgb(33, 33, 33)" stroke="none" stroke-width="1px">15k</text><text x="787.5868055555555" y="0" dx="0em" dy="0.95em" style="text-anchor: middle; visibility: inherit; font-family: Roboto, sans-serif; font-size: 12px; font-weight: 200;" fill="rgb(33, 33, 33)" stroke="none" stroke-width="1px">20k</text><text x="945.1041666666666" y="0" dx="0em" dy="0.95em" style="text-anchor: middle; visibility: inherit; font-family: Roboto, sans-serif; font-size: 12px; font-weight: 200;" fill="rgb(33, 33, 33)" stroke="none" stroke-width="1px">25k</text><text x="1102.6215277777778" y="0" dx="0em" dy="0.95em" style="text-anchor: middle; visibility: inherit; font-family: Roboto, sans-serif; font-size: 12px; font-weight: 200;" fill="rgb(33, 33, 33)" stroke="none" stroke-width="1px">30k</text><text x="1260.138888888889" y="0" dx="0em" dy="0.95em" style="text-anchor: middle; visibility: inherit; font-family: Roboto, sans-serif; font-size: 12px; font-weight: 200;" fill="rgb(33, 33, 33)" stroke="none" stroke-width="1px">35k</text><text x="1417.65625" y="0" dx="0em" dy="0.95em" style="text-anchor: middle; visibility: hidden; font-family: Roboto, sans-serif; font-size: 12px; font-weight: 200;" fill="rgb(33, 33, 33)" stroke="none" stroke-width="1px">40k</text></g><line x1="0" y1="0" x2="1417.65625" y2="0" fill="rgb(0, 0, 0)" stroke="rgb(204, 204, 204)" stroke-width="1px"></line></g></g></g></g></svg>